<svg version="1.0" xmlns="http://www.w3.org/2000/svg"
 width="192.000000pt" height="192.000000pt" viewBox="0 0 192.000000 192.000000"
 preserveAspectRatio="xMidYMid meet">

<g transform="translate(0.000000,192.000000) scale(0.100000,-0.100000)"
fill="#3d5480" stroke="none">
<path d="M1423 1738 c148 -154 213 -228 200 -228 -5 0 -13 3 -17 8 -4 4 -11 7
-15 7 -4 0 -23 13 -42 29 -19 16 -26 27 -16 23 10 -4 -9 18 -43 49 -33 31 -60
61 -60 67 0 5 10 2 23 -9 l22 -19 -19 23 c-11 12 -21 20 -24 18 -2 -3 -16 0
-31 5 -19 7 -10 -6 36 -48 45 -42 63 -68 68 -93 14 -69 58 -98 110 -73 34 16
36 20 31 53 -4 29 -25 54 -113 138 -59 56 -121 112 -138 124 l-30 22 19 -22
c30 -34 3 -26 -30 10 -21 23 -24 29 -10 24 16 -5 17 -4 7 8 -7 8 -21 14 -32
13 -14 -1 12 -34 104 -129z"/>
<path d="M1146 1799 c10 -17 65 -65 115 -101 22 -16 43 -37 47 -47 12 -31 146
-168 172 -176 l25 -7 -21 23 c-12 13 -36 53 -55 89 -37 71 -170 215 -191 207
-7 -2 -20 -1 -28 3 -8 4 -28 10 -43 14 -21 5 -27 4 -21 -5z m164 -83 c18 -34
8 -42 -28 -21 -22 13 -28 23 -24 41 3 18 8 22 21 15 9 -5 23 -21 31 -35z"/>
<path d="M1180 1725 c0 -5 19 -39 41 -77 31 -52 63 -85 129 -138 79 -63 99
-89 100 -127 0 -7 -12 -13 -27 -13 -16 0 -35 -5 -43 -10 -12 -8 -11 -10 8 -10
40 0 21 -31 -23 -37 -42 -6 -51 -16 -20 -22 18 -4 31 -13 33 -25 5 -24 -16
-38 -48 -31 -19 4 -22 3 -10 -5 13 -9 12 -12 -4 -25 -33 -25 -73 -19 -90 13
-8 15 -15 23 -16 19 -1 -23 26 -50 66 -67 30 -13 44 -25 44 -39 0 -23 -25 -34
-50 -21 -26 14 -30 13 -23 -6 5 -14 1 -16 -20 -12 -15 3 -27 4 -27 2 0 -4 157
-107 188 -123 18 -10 30 -10 52 -1 15 6 39 10 52 8 19 -2 23 -10 26 -45 2 -34
0 -43 -12 -43 -18 0 -19 -5 -7 -28 11 -20 -28 -72 -54 -72 -9 0 -13 -5 -10
-10 4 -6 -7 -10 -25 -10 -21 0 -29 4 -24 12 5 8 2 9 -10 5 -10 -4 -20 -7 -22
-7 -3 0 -3 -4 0 -9 8 -13 -21 -34 -35 -25 -9 5 -7 10 7 15 10 4 -7 5 -38 2
-76 -8 -79 14 -5 42 49 19 52 23 55 59 2 28 -2 44 -17 60 -12 13 -18 26 -14
31 5 4 3 5 -4 1 -6 -3 -15 0 -20 7 -4 8 -26 29 -48 48 -22 19 -34 27 -27 18
24 -32 2 -53 -87 -84 -64 -22 -74 -20 -66 13 4 21 1 33 -15 47 -11 10 -20 28
-20 40 0 13 -7 25 -15 29 -8 3 -15 13 -15 23 -1 10 -7 29 -15 43 -16 29 -20
19 -4 -11 10 -20 4 -59 -11 -59 -4 0 -11 12 -14 26 -4 15 -9 24 -12 22 -2 -3
1 -19 7 -37 6 -17 8 -44 4 -59 -7 -25 -8 -25 -15 -7 -7 17 -9 14 -9 -12 -1
-23 -5 -31 -15 -27 -10 4 -12 -2 -9 -19 4 -19 11 -24 27 -23 13 2 47 -5 77
-15 l54 -17 -80 -2 c-44 -1 -72 -4 -63 -7 16 -4 16 -6 2 -28 -24 -37 -3 -89
65 -155 31 -30 47 -47 36 -38 -32 26 -107 58 -139 58 -16 0 -43 -9 -61 -20
-43 -26 -124 -131 -131 -170 -4 -17 -18 -40 -33 -51 l-26 -21 -3 33 c-3 28 2
38 37 66 49 42 171 194 200 250 37 73 25 90 -37 53 -18 -11 -37 -18 -41 -15
-5 2 -17 -5 -27 -17 -11 -11 -41 -31 -69 -43 -157 -70 -386 -57 -517 30 -44
29 -45 29 -45 10 0 -8 4 -12 8 -9 4 2 20 -6 36 -19 39 -31 87 -62 94 -60 4 1
6 -5 5 -14 -1 -21 41 -43 114 -59 38 -9 46 -12 25 -13 -16 0 -55 8 -85 19 -30
11 -64 19 -75 20 -10 0 -35 15 -55 32 -19 18 -8 4 25 -30 79 -83 172 -130 271
-139 l71 -6 -14 -41 c-7 -22 -18 -49 -23 -58 -8 -14 -5 -19 16 -24 21 -5 25
-11 19 -31 -3 -14 -9 -38 -12 -54 -3 -16 -8 -29 -12 -29 -3 0 -6 -19 -7 -42 0
-23 -5 -43 -12 -46 -6 -2 -14 -20 -17 -40 -4 -20 -8 -48 -11 -62 -4 -25 -4
-25 11 3 9 15 24 27 34 27 13 0 24 19 44 83 l26 82 -5 -90 c-4 -60 -2 -85 4
-76 6 8 19 12 31 8 17 -4 21 -1 21 18 0 13 -4 26 -9 29 -9 6 13 158 28 197 8
18 9 9 5 -36 l-6 -60 21 30 c12 17 21 44 20 60 0 17 -1 35 0 42 2 27 112 92
183 108 92 21 107 11 78 -54 -11 -24 -20 -49 -20 -56 0 -7 -7 -18 -15 -25 -8
-7 -14 -20 -14 -29 1 -14 2 -14 6 1 4 15 8 15 24 5 16 -10 22 -9 30 3 9 12 10
12 5 -4 -4 -10 -12 -87 -18 -170 -8 -97 -15 -140 -19 -121 -5 23 -6 19 -6 -18
1 -39 3 -45 11 -28 5 12 17 21 26 21 14 0 19 13 24 61 11 98 25 116 26 34 0
-75 10 -102 30 -90 9 6 11 31 7 94 -3 47 -2 109 2 136 l7 50 8 -77 c5 -42 12
-91 16 -110 l8 -33 1 43 c1 23 3 42 5 42 2 0 20 -7 39 -15 34 -14 36 -14 30 2
-5 13 -3 15 13 9 43 -18 54 -19 49 -4 -4 10 1 17 14 21 12 3 21 0 21 -6 0 -6
2 -8 4 -6 3 3 -10 34 -28 70 -21 42 -38 95 -46 147 -12 77 -11 83 9 115 12 19
44 60 72 90 43 47 59 58 101 67 28 6 54 8 57 4 3 -3 -34 -42 -82 -87 -48 -45
-87 -86 -87 -91 0 -5 9 -1 20 9 11 10 22 16 25 13 3 -3 -4 -13 -15 -23 -20
-18 -21 -18 -47 6 l-26 24 18 -28 c21 -33 28 -34 71 -1 40 31 46 28 94 -44 24
-36 29 -53 25 -81 -3 -20 -2 -30 1 -24 4 9 18 11 45 7 34 -6 39 -4 40 12 0 11
8 -6 18 -36 22 -68 91 -220 100 -220 4 0 5 17 3 38 l-3 37 26 -30 c19 -21 24
-23 16 -8 -14 29 -14 36 2 30 9 -3 5 11 -9 42 -31 65 -54 137 -61 190 -3 26
-30 96 -62 160 l-56 113 30 24 c16 13 26 26 22 30 -4 4 -7 1 -7 -7 -1 -8 -7 1
-15 20 -19 42 -19 40 6 34 19 -5 20 -3 13 18 -4 13 -8 33 -7 44 3 66 12 152
18 168 4 10 3 17 -5 17 -6 0 -8 -5 -5 -10 3 -5 2 -10 -3 -10 -4 0 -16 -15 -25
-32 -14 -30 -16 -31 -16 -9 -1 33 58 204 75 217 8 6 14 27 14 46 0 27 -6 40
-26 53 -25 16 -27 16 -44 -1 -21 -23 -90 -191 -90 -220 0 -12 -9 -29 -21 -39
-20 -19 -20 -19 -18 22 2 23 6 40 10 37 10 -6 89 198 89 231 0 14 -9 43 -19
64 -27 51 -157 171 -186 171 -15 0 -30 11 -44 33 -36 55 -71 100 -71 92z m263
-508 c-14 -37 -29 -65 -31 -62 -3 3 7 34 23 70 36 85 43 79 8 -8z m-444 -346
c16 -16 26 -18 57 -11 l37 9 -21 -21 c-18 -19 -31 -23 -84 -27 -10 0 -27 -10
-38 -21 l-20 -20 -10 25 c-14 36 -13 42 10 65 25 25 45 25 69 1z m-160 -71
c-24 -43 -45 -41 -34 3 6 23 18 32 48 36 5 0 -2 -17 -14 -39z m676 -40 c-3 -5
-12 -10 -18 -10 -7 0 -6 4 3 10 19 12 23 12 15 0z m-343 -77 c-59 -86 -82
-138 -82 -181 0 -31 -6 -42 -29 -60 l-29 -21 -6 25 c-4 13 -2 33 3 43 6 10 7
22 3 26 -4 5 -2 5 4 2 12 -7 20 4 120 167 26 43 50 74 52 68 2 -6 -15 -37 -36
-69z m-523 -96 c-17 -37 -42 -45 -28 -9 10 25 29 45 37 38 1 -2 -3 -15 -9 -29z
m951 -121 l-1 -41 -23 28 c-16 20 -21 37 -18 58 4 29 5 29 23 13 13 -12 19
-30 19 -58z m-470 -121 c0 -14 -4 -25 -10 -25 -5 0 -10 11 -10 25 0 14 5 25
10 25 6 0 10 -11 10 -25z"/>
<path d="M1480 1656 c0 -2 8 -10 18 -17 15 -13 16 -12 3 4 -13 16 -21 21 -21
13z"/>
<path d="M1564 1551 c20 -22 26 -25 26 -13 0 4 -10 13 -22 21 -23 14 -23 14
-4 -8z"/>
<path d="M1742 1482 c-62 -17 -62 -17 -46 -40 9 -13 14 -26 11 -28 -3 -3 -13
8 -23 25 -10 17 -21 31 -25 31 -12 0 -59 -61 -59 -76 0 -8 12 -26 27 -40 26
-24 26 -25 10 -64 -13 -35 -14 -40 -1 -40 9 0 13 5 9 13 -4 6 0 4 8 -6 8 -10
12 -29 9 -45 -4 -26 -3 -25 28 13 46 57 50 68 35 88 -13 18 -13 18 -18 0 -3
-10 -5 -4 -6 14 -1 25 -8 36 -29 47 -36 19 -56 42 -47 56 4 7 13 3 23 -9 9
-10 29 -27 44 -36 27 -17 28 -17 37 9 6 14 18 34 28 44 29 30 56 62 52 61 -2
0 -32 -8 -67 -17z"/>
<path d="M1552 1410 c0 -14 2 -19 5 -12 2 6 2 18 0 25 -3 6 -5 1 -5 -13z"/>
<path d="M680 1396 c0 -2 8 -10 18 -17 15 -13 16 -12 3 4 -13 16 -21 21 -21
13z"/>
<path d="M1318 1363 c7 -3 16 -2 19 1 4 3 -2 6 -13 5 -11 0 -14 -3 -6 -6z"/>
<path d="M1276 1315 c10 -8 23 -15 28 -15 6 0 1 7 -10 15 -10 8 -23 15 -28 15
-6 0 -1 -7 10 -15z"/>
<path d="M780 1286 c0 -2 8 -10 18 -17 15 -13 16 -12 3 4 -13 16 -21 21 -21
13z"/>
<path d="M920 1230 c6 -11 13 -20 16 -20 2 0 0 9 -6 20 -6 11 -13 20 -16 20
-2 0 0 -9 6 -20z"/>
<path d="M650 1216 c0 -2 8 -10 18 -17 15 -13 16 -12 3 4 -13 16 -21 21 -21
13z"/>
<path d="M896 1185 c3 -16 13 -37 22 -45 14 -13 15 -13 5 0 -6 8 -15 29 -22
45 l-11 30 6 -30z"/>
<path d="M725 1150 c10 -11 20 -20 23 -20 3 0 -3 9 -13 20 -10 11 -20 20 -23
20 -3 0 3 -9 13 -20z"/>
<path d="M1207 1129 c7 -7 15 -10 18 -7 3 3 -2 9 -12 12 -14 6 -15 5 -6 -5z"/>
<path d="M765 1100 c10 -11 20 -20 23 -20 3 0 -3 9 -13 20 -10 11 -20 20 -23
20 -3 0 3 -9 13 -20z"/>
<path d="M1026 1077 c3 -10 9 -15 12 -12 3 3 0 11 -7 18 -10 9 -11 8 -5 -6z"/>
<path d="M815 1040 c10 -11 20 -20 23 -20 3 0 -3 9 -13 20 -10 11 -20 20 -23
20 -3 0 3 -9 13 -20z"/>
<path d="M700 1046 c0 -3 9 -10 20 -16 11 -6 20 -8 20 -6 0 3 -9 10 -20 16
-11 6 -20 8 -20 6z"/>
<path d="M1041 1034 c0 -11 3 -14 6 -6 3 7 2 16 -1 19 -3 4 -6 -2 -5 -13z"/>
<path d="M875 958 c8 -20 -4 -24 -23 -8 -7 5 -5 2 3 -7 12 -13 18 -14 27 -5 9
9 9 15 -1 25 -10 10 -11 9 -6 -5z"/>
<path d="M765 900 c3 -5 12 -7 20 -3 21 7 19 13 -6 13 -11 0 -18 -4 -14 -10z"/>
<path d="M483 312 c-27 -70 -40 -142 -24 -127 12 11 61 150 61 172 0 29 -16
10 -37 -45z"/>
<path d="M912 286 c-14 -60 -16 -199 -3 -176 5 8 14 47 20 85 6 39 13 84 17
101 4 22 2 33 -8 36 -10 4 -17 -9 -26 -46z"/>
<path d="M1467 308 c6 -54 55 -138 79 -138 21 0 22 1 7 78 -8 42 -15 78 -16
78 -1 1 -18 4 -38 8 -35 6 -36 6 -32 -26z"/>
<path d="M661 254 c0 -11 3 -14 6 -6 3 7 2 16 -1 19 -3 4 -6 -2 -5 -13z"/>
</g>
</svg>
